<?xml version="1.0" encoding="UTF-8"?>
<svg id="_レイヤー_2" data-name="レイヤー 2" xmlns="http://www.w3.org/2000/svg" viewBox="0 0 690.17 65.77">
  <defs>
    <style>
      .cls-1 {
        fill: #fff;
      }
    </style>
  </defs>
  <g id="_レイヤー_1-2" data-name="レイヤー 1">
    <path class="cls-1" d="M570.53,51.64c-17.02,8.25-34.03,14.13-51.05,14.13-.62,0-1.23-.02-1.85-.03-.62.01-1.23.03-1.85.03-17.02,0-34.03-5.88-51.05-14.13-39.97-17.77-80.3-45.99-119.65-45.99-39.34,0-79.68,28.22-119.65,45.99-17.02,8.25-34.03,14.13-51.05,14.13-.62,0-1.23-.02-1.85-.03-.62.01-1.23.03-1.85.03-17.02,0-34.03-5.88-51.05-14.13C79.68,33.87,39.34,5.65,0,5.65V0h690.17v5.65c-39.34,0-79.68,28.22-119.65,45.99Z"/>
  </g>
</svg>