<?xml version="1.0" encoding="UTF-8"?>
<svg id="_レイヤー_2" data-name="レイヤー 2" xmlns="http://www.w3.org/2000/svg" viewBox="0 0 690.17 14.34">
  <defs>
    <style>
      .cls-1 {
        fill: #fff;
      }
    </style>
  </defs>
  <g id="_レイヤー_1-2" data-name="レイヤー 1">
    <path class="cls-1" d="M570.53,11.26c-17.02,1.8-34.03,3.08-51.05,3.08-.62,0-1.23,0-1.85,0-.62,0-1.23,0-1.85,0-17.02,0-34.03-1.28-51.05-3.08-39.97-3.87-80.3-10.03-119.65-10.03-39.34,0-79.68,6.15-119.65,10.03-17.02,1.8-34.03,3.08-51.05,3.08-.62,0-1.23,0-1.85,0-.62,0-1.23,0-1.85,0-17.02,0-34.03-1.28-51.05-3.08C79.68,7.38,39.34,1.23,0,1.23V0h690.17v1.23c-39.34,0-79.68,6.15-119.65,10.03Z"/>
  </g>
</svg>