<svg width="49" height="51" viewBox="0 0 49 51" fill="none" xmlns="http://www.w3.org/2000/svg">
<g clip-path="url(#clip0_460_909)">
<path d="M10.355 0.758789C11.0235 0.669469 11.3908 0.816625 11.5757 0.935547C11.6724 0.997781 11.7327 1.06105 11.7661 1.10254C11.7829 1.1234 11.7933 1.13883 11.7974 1.14551C11.7992 1.14852 11.7999 1.14955 11.7993 1.14844C11.7989 1.14767 11.7975 1.1457 11.7964 1.14355L11.7935 1.1377V1.13672H11.7925L11.8257 1.20605L11.8794 1.2627L19.2817 9.15918C17.2522 12.941 16.3954 14.5905 15.731 15.5996C15.0724 16.5997 14.6345 16.9279 13.2886 18.1982L12.9263 18.54L13.2671 18.9043L30.3335 37.123L30.6763 37.4902L31.0415 37.1455C32.3873 35.8752 32.7413 35.4573 33.7769 34.8594C34.8218 34.2561 36.5142 33.4976 40.3989 31.6973L47.8003 39.5938L47.854 39.6504L47.9097 39.6816C47.9102 39.682 47.9113 39.6827 47.9126 39.6836C47.919 39.6881 47.9341 39.6989 47.9536 39.7168C47.9928 39.7528 48.0519 39.8173 48.1079 39.918C48.2153 40.1111 48.3396 40.4892 48.2095 41.1543C47.941 42.5256 46.6077 45.0381 42.0825 49.3086C41.1142 50.2219 39.6837 50.4844 37.8071 50.1016C35.9299 49.7185 33.6936 48.7037 31.2466 47.1934C26.4009 44.2026 20.8467 39.3418 15.8101 33.9414V33.9365L15.6733 33.792C10.5559 28.3786 6.00699 22.4593 3.30615 17.3789C1.9541 14.8356 1.08253 12.5333 0.816895 10.6289C0.551333 8.72478 0.899718 7.30565 1.86865 6.39062C6.39435 2.12193 8.97568 0.943141 10.355 0.758789Z" fill="#8BE648" stroke="black" stroke-miterlimit="10"/>
</g>
<defs>
<clipPath id="clip0_460_909">
<rect width="49" height="51" fill="white"/>
</clipPath>
</defs>
</svg>
