<?xml version="1.0" encoding="UTF-8"?>
<svg id="_レイヤー_2" data-name="レイヤー 2" xmlns="http://www.w3.org/2000/svg" viewBox="0 0 1681.37 160.22">
  <defs>
    <style>
      .cls-1 {
        fill: #2ea7e0;
      }
    </style>
  </defs>
  <g id="_レイヤー_1-2" data-name="レイヤー 1">
    <path class="cls-1" d="M1389.89,34.43c-41.46-20.09-82.91-34.43-124.37-34.43-1.5,0-3,.04-4.5.07-1.5-.03-3-.07-4.5-.07-41.46,0-82.91,14.33-124.37,34.43-97.37,43.29-195.63,112.03-291.47,112.03-95.85,0-194.11-68.74-291.47-112.03C507.75,14.33,466.3,0,424.84,0c-1.5,0-3,.04-4.5.07-1.5-.03-3-.07-4.5-.07-41.46,0-82.91,14.33-124.37,34.43C194.11,77.72,95.85,146.46,0,146.46v13.77h1681.37v-13.77c-95.85,0-194.11-68.74-291.47-112.03Z"/>
  </g>
</svg>